<?xml version="1.0" encoding="utf-8" ?><svg xmlns="http://www.w3.org/2000/svg" xmlns:xlink="http://www.w3.org/1999/xlink" width="500" height="500" viewBox="0 0 500 500"><path fill="#055490" d="M235.937 21.1111C238.366 20.8036 246.466 21.0152 249.23 21.0265C254.378 21.0474 260.747 20.7759 265.746 21.2108C271.174 21.6829 276.521 24.2364 279.965 28.5815C285.161 35.1349 284.206 41.289 284.258 49.1354C284.277 51.9464 284.372 56.5278 284.058 59.1947C289.994 58.6492 298.566 59.2195 304.617 59.1863C307.873 59.1685 314.548 58.9946 317.46 59.4393C319.914 59.8026 322.273 60.6436 324.404 61.9147C328.267 64.2281 330.665 67.7734 331.734 72.1002C341.706 72.4486 351.943 71.9137 361.964 72.1139C373.852 72.3514 383.048 70.42 392.043 80.0353C399.539 88.0486 400.218 93.4272 400.286 103.827L400.286 304.485L400.286 368.141L400.26 386.671C400.253 390.544 400.391 395.055 399.926 398.853C398.496 410.546 386.961 421.59 375.083 421.963C371.702 422.069 368.223 422.036 364.828 422.034L344.328 422.018L265.125 422.012L172.274 422.026L142.762 422.093C136.711 422.111 130.759 422.107 124.647 422.001C112.411 421.92 101.215 410.931 100.008 398.935C99.524 394.129 99.7387 388.36 99.7348 383.421L99.7225 357.486L99.6763 273.442L99.7078 157.651L99.701 119.273C99.7033 112.335 99.5943 105.17 99.8396 98.1989C100.243 86.7273 109.012 75.2198 120.346 72.7501C124.326 71.8828 134.799 72.1874 139.402 72.1912C147.079 72.1456 154.757 72.1575 162.435 72.2268C169.918 72.3433 167.974 73.418 170.08 67.7244C171.294 64.4412 177.234 60.5435 180.666 59.8448C187.681 58.4168 195.835 59.2194 203.047 59.1839C207.263 59.1578 211.792 58.8795 215.985 59.1649C215.711 55.7187 215.809 52.0744 215.755 48.6329C215.635 40.9778 215.245 34.0527 220.636 27.874C224.816 23.0833 229.836 21.5298 235.937 21.1111Z"/><path fill="#FEFEFE" d="M332.175 105.498L350.81 105.492C354.994 105.491 361.455 104.553 364.524 107.51C368.268 111.119 367.317 116.447 367.317 121.268L367.305 138.715L367.303 193.794L367.3 378.685C366.995 381.728 365.838 383.145 363.841 385.259C359.803 386.433 343.265 386.012 338.309 386.012L296.276 386.002L194.349 386C177.236 385.999 160.085 386.027 142.97 385.983C140.563 385.977 138.48 385.837 136.185 385.13C132.463 381.304 132.967 378.97 132.922 374.007C132.884 369.807 132.927 365.581 132.923 361.379L132.906 326.586L132.899 156.729L132.898 128.413C132.885 123.03 132.758 117.437 133.049 112.061C133.084 111.415 133.456 110.299 133.794 109.755C135.498 107.014 136.005 106.419 138.86 105.561C147.425 105.133 159.1 105.493 167.879 105.497C169.866 114.109 176.58 118.637 185.098 118.684C189.791 118.709 194.498 118.728 199.188 118.725L236.042 118.719L290.045 118.723L306.969 118.72C313.32 118.718 319.248 119.592 324.709 116.029C328.999 113.23 331.024 110.477 332.175 105.498Z"/><path fill="#055490" d="M297.976 153.68C308.705 153.52 317.556 162.04 317.804 172.767C318.052 183.494 309.604 192.414 298.88 192.75C288.031 193.089 278.984 184.522 278.733 173.67C278.482 162.819 287.123 153.843 297.976 153.68Z"/><path fill="#FEFEFE" d="M303.237 164.015C306.944 163.82 308.031 165.413 309.096 168.63C308.407 171.144 308.043 171.811 305.864 173.197C304.423 173.596 302.557 173.353 301.652 172.172C299.169 168.932 300.78 166.09 303.237 164.015Z"/><path fill="#055490" d="M200.828 153.841C211.579 153.281 220.732 161.576 221.231 172.329C221.73 183.083 213.384 192.189 202.628 192.627C191.957 193.062 182.939 184.797 182.444 174.129C181.949 163.461 190.163 154.396 200.828 153.841Z"/><path fill="#FEFEFE" d="M207.155 164.258C208.773 163.929 210.442 164.497 211.525 165.744C212.607 166.991 212.934 168.724 212.381 170.279C211.828 171.835 210.48 172.972 208.853 173.256C206.387 173.685 204.033 172.054 203.568 169.594C203.104 167.134 204.701 164.757 207.155 164.258Z"/><path fill="#055490" d="M241.502 243.521C244.063 243.52 246.69 243.629 249.255 243.705C248.924 256.334 249.177 270.017 249.25 282.689C248.413 283.297 243.875 282.982 242.54 282.942C240.206 280.324 239.28 277.918 237.421 275.25C233.68 269.876 229.804 263.346 225.597 258.412C226.126 264.706 225.8 276.32 225.812 283L218.329 283.011C217.921 270.653 218.285 256.09 218.282 243.595L225.118 243.686C225.642 244.79 226.327 245.775 226.981 246.801C231.748 254.277 237.233 260.953 241.545 268.706L241.502 243.521Z"/><path fill="#055490" d="M264.988 253.548C271.911 252.796 278.414 255.241 281.037 262.407C282.455 266.282 282.023 273.434 280.072 277.1C278.168 280.678 274.999 282.271 271.187 283.375C251.041 287.152 247.878 258.183 264.988 253.548Z"/><path fill="#FEFEFE" d="M267.298 259.805C276.391 259.616 276.374 274.701 268.878 277.524C263.109 278.176 261.086 272.613 261.314 267.826C261.535 263.198 262.605 260.641 267.298 259.805Z"/><path fill="#A6D7F9" d="M319.777 190.351C326.033 190.36 333.67 193.332 334.77 200.294C335.219 203.231 334.499 206.226 332.764 208.637C329.88 212.564 325.844 213.755 321.309 214.489C318.262 214.446 313.606 213.018 311.261 211.006C301.377 202.526 308.83 191.337 319.777 190.351Z"/><path fill="#A6D7F9" d="M176.249 190.534C182.53 189.91 190.397 192.708 192.371 199.306C193.179 202.07 192.821 205.045 191.381 207.539C189.19 211.365 185.414 213.193 181.338 214.242C168.49 217.127 154.077 197.241 176.249 190.534Z"/><path fill="#055490" d="M222.245 294.847L229.529 294.828L229.489 316.134C232.252 312.655 234.853 309.017 237.468 305.424C239.984 305.54 243.183 305.465 245.753 305.466C243.387 308.803 240.014 312.771 237.395 316.344C239.092 318.874 241.259 323.6 243.318 326.859C244.277 328.578 245.257 330.284 246.259 331.978C243.607 332.049 240.954 332.078 238.301 332.065C236.394 328.515 234.416 325.003 232.368 321.532C229.671 323.336 229.29 324.15 229.432 327.613C229.488 328.997 229.496 330.623 229.513 332.022L222.4 332.06C222.307 319.75 222.521 307.099 222.245 294.847Z"/><path fill="#055490" d="M317.282 305.078C328.35 304.047 330.07 312.943 330.017 321.501L313.642 321.511C315.498 326.669 319.694 330.009 323.014 323.901C325.199 323.858 327.718 324.005 329.926 324.081C328.518 327.822 326.214 331.541 322.036 332.406C308.006 335.31 302.822 319.639 309.369 309.66C311.289 306.735 314.029 305.633 317.282 305.078Z"/><path fill="#FEFEFE" d="M317.746 310.759C322.141 310.374 322.49 312.668 323.139 316.298L318.938 316.29L313.974 316.302C314.083 315.921 314.196 315.541 314.312 315.163C315.064 312.713 315.479 311.96 317.746 310.759Z"/><path fill="#055490" d="M180.288 305.06C185.438 304.811 191.53 305.641 192.591 311.539C193.721 317.823 192.441 325.2 193.248 331.607L193.299 332.001C191.935 332.042 187.236 332.528 186.53 331.526C186.568 330.846 186.65 330.433 186.417 329.789C184.567 330.244 182.406 333.182 178.921 332.882C176.202 332.648 174.465 331.458 172.683 329.506C169.382 323.629 172.051 318.945 178.223 317.038C180.809 316.24 183.358 316.403 186.03 316.419C186.051 314.153 185.989 311.731 183.528 310.832C180.556 309.746 178.886 312.231 178.019 314.49C176.991 314.485 173.414 314.492 172.788 314.133C169.682 312.354 174.763 307.301 176.446 306.407C178.168 305.491 178.723 305.348 180.288 305.06Z"/><path fill="#FEFEFE" d="M181.897 321.045C184.106 320.901 187.664 320.561 185.565 324.54C184.859 325.878 183.556 326.563 182.133 327.013C179.976 327.039 177.204 326.055 178.357 323.22C178.928 321.814 180.552 321.46 181.897 321.045Z"/><path fill="#055490" d="M298.909 305.359C301.028 305.591 303.85 305.514 306.033 305.516C302.724 313.158 297.582 337.083 292.122 341.083C289.433 343.053 286.147 343.153 282.986 342.697C282.891 340.652 282.855 339.215 282.953 337.179C286.97 336.962 289.371 335.54 289.462 331.068C286.9 322.618 282.768 314.128 280.967 305.484L288.265 305.487C289.305 310.22 292.126 318.681 293.579 323.547C294.456 320.73 298.143 306.802 298.909 305.359Z"/><path fill="#055490" d="M206.018 305.065C212.993 304.571 216.884 306.336 218.161 313.512C216.04 313.625 213.992 313.698 211.887 314.014L210.636 311.657C208.605 310.397 206.908 310.161 204.703 312.01C204.271 312.372 204.41 312.922 204.477 313.428C207.169 317.569 217.351 314.884 218.34 322.398C219.165 328.665 215.61 331.892 209.716 332.629C205.147 333.146 199.541 331.902 197.834 327.09C197.447 326 197.411 324.667 197.333 323.513C198.834 323.469 202.207 323.215 203.622 323.726C204.099 323.899 204.904 326.021 205.704 326.499C207.855 327.787 212.405 326.693 211.456 323.486C209.076 320.907 198.935 321.952 198.05 315.492C197.237 309.556 200.378 306.112 206.018 305.065Z"/><path fill="#055490" d="M257.126 305.05C263.267 304.705 267.476 306.829 268.08 313.387C267.03 313.519 263.1 314.071 262.519 313.777C260.748 312.878 259.65 307.973 256.399 311.399C253.195 314.993 258.574 315.467 260.782 316.044C272.952 319.228 270.967 330.848 259.036 332.789C252.35 332.591 248.542 330.653 247.804 323.537C249.842 323.514 251.88 323.464 253.917 323.385C255.126 325.664 256.119 326.832 258.881 327.022C261.256 327.186 261.932 325.626 261.801 323.617C261.216 322.601 259.921 322.19 258.777 321.961C251.126 320.431 245.419 316.956 250.344 308.535C251.664 306.279 254.578 305.515 257.126 305.05Z"/><path fill="#055490" d="M267.191 187.26C272.308 189.37 271.958 192.046 268.923 195.926C259.756 205.205 245.971 207.197 235.194 199.41C231.176 196.507 225.069 191.196 232.136 187.499C235.345 187.378 236.978 190.457 239.419 192.642C240.777 193.848 242.352 194.785 244.061 195.401C249.076 197.239 256.128 196.421 260.236 192.98C262.883 190.763 263.8 188.74 267.191 187.26Z"/><path fill="#055490" d="M335.632 299.275C337.56 299.411 340.931 299.265 342.963 299.24L342.965 305.561L348.567 305.527L348.668 311.434C346.818 311.335 344.836 311.318 342.974 311.268L342.935 316.4C342.917 318.751 342.476 324.552 343.937 326.036C345.399 326.745 346.603 326.461 348.182 326.243L348.404 330.187C348.452 330.879 348.455 330.875 348.319 331.554C347.079 332.596 346.574 332.36 345.097 332.601C332.783 334.617 335.471 319.74 335.539 311.24C334.576 311.398 333.48 311.378 332.494 311.396L332.464 305.58C333.408 305.691 334.564 305.712 335.529 305.756C335.514 303.634 335.592 301.405 335.632 299.275Z"/><path fill="#055490" d="M155.014 299.397C157.331 299.261 159.66 299.282 161.981 299.275L161.985 305.787C164.353 305.612 166.059 305.555 168.432 305.588C168.229 307.498 168.282 309.353 168.298 311.271C166.078 311.399 164.195 311.378 161.984 311.343C161.964 315.019 161.593 321.308 162.434 324.81C163.035 327.313 165.822 325.852 167.621 326.629C168.268 327.509 168.075 327.66 168.215 328.937C168.256 329.996 168.346 330.64 168.076 331.663C164.892 333.793 156.007 333.247 155.491 327.491C154.983 321.83 155.01 316.917 155.034 311.256C153.996 311.38 152.684 311.411 151.62 311.466C151.562 309.493 151.53 307.52 151.523 305.546C152.641 305.713 153.887 305.725 155.027 305.771L155.014 299.397Z"/><path fill="#44A7E8" d="M332.018 81.7924L336.24 81.7976C344.282 81.9012 352.324 81.9193 360.367 81.8519C365.602 81.8293 370.56 81.6646 375.834 82.2646C383.658 83.1547 389.663 90.9295 390.132 98.5007C390.465 103.875 390.252 109.736 390.246 115.22L390.243 146.139L390.245 245.207L390.245 348.028L390.25 378.468C390.274 384.302 390.424 390.073 390.183 395.911C389.802 405.093 382.587 412.47 373.393 412.911C368.091 413.165 362.648 413.029 357.32 413.026L328.614 413.026L238.579 413.029L162.276 413.015L139.635 413.045C131.355 413.069 122.182 414.334 115.584 408.439C111.963 405.137 109.79 400.541 109.535 395.648C109.197 389.552 109.44 381.055 109.444 374.832L109.453 337.305L109.445 221.281L109.452 137.237L109.427 112.161C109.402 102.908 107.942 94.2428 114.796 86.9898C118.812 82.7395 122.806 82.1201 128.405 81.8575C133.156 81.7189 138.354 81.8469 143.137 81.8468L167.469 81.8659L167.299 95.9883L149.249 95.9774C144.831 95.9761 139.491 95.6819 135.269 96.6762C128.373 98.3003 123.29 104.871 123.115 111.904C122.971 117.687 122.991 123.356 122.992 129.102L122.996 161.101L123.001 259.588L122.999 341.868L122.981 367.545C122.977 375.246 121.577 384.394 127.33 390.184C131.185 394.064 135.03 395.612 140.499 395.704C146.087 395.797 151.604 395.772 157.165 395.768L185.903 395.769L276.311 395.774L333.56 395.776L350.987 395.788C361.025 395.794 369.425 396.681 375.269 386.696C376.681 384.285 376.983 382.195 377.001 379.452C377.041 373.242 376.995 367.017 376.992 360.807L376.99 323.638L376.991 209.417L376.997 143.602L377.008 122.827C377.01 115.024 378.274 107.036 372.375 101.076C366.007 94.6414 356.904 95.9581 348.67 95.9767L332.017 95.9917L332.018 81.7924Z"/><path fill="#44A7E8" d="M177.395 99.7307C177.446 94.1287 177.446 88.5264 177.393 82.9244C177.384 80.2945 177.252 76.9981 177.55 74.4465C178.287 68.1468 187.449 69.2013 192.12 69.2011L209.041 69.2331C212.231 69.252 215.63 69.5019 218.799 69.1855C220.693 68.9963 222.476 68.5446 223.635 66.9211C227.709 61.2194 221.605 41.3898 227.643 34.3122C229.648 31.9609 232.271 31.2739 235.231 31.0757C240.376 30.7311 245.65 31.0363 250.81 31.0308C256.121 31.0252 262.053 30.4508 267.285 31.3634C268.984 31.6599 270.567 32.2115 271.857 33.3939C273.292 34.7098 274.182 36.5365 274.664 38.3994C276.006 43.5881 274.956 55.8575 275.185 62.0236C275.266 64.226 275.773 66.8319 277.739 68.147C281.865 70.9082 309.441 68.0552 316.817 69.4436C318.381 69.7379 319.994 70.313 321.144 71.4585C321.944 72.255 322.279 73.1371 322.475 74.2354C323.014 77.2527 322.747 80.5627 322.745 83.6221L322.748 99.5436C322.786 105.165 322.466 109.166 315.782 109.454C310.598 109.678 305.472 109.61 300.285 109.613L272.553 109.648L231.134 109.584C216.65 109.659 202.166 109.649 187.682 109.553C179.879 109.438 176.91 108.62 177.395 99.7307Z"/><path fill="#2496E1" d="M177.395 99.7307C195.354 99.1568 213.832 99.6566 231.841 99.6504L322.748 99.5436C322.786 105.165 322.466 109.166 315.782 109.454C310.598 109.678 305.472 109.61 300.285 109.613L272.553 109.648L231.134 109.584C216.65 109.659 202.166 109.649 187.682 109.553C179.879 109.438 176.91 108.62 177.395 99.7307Z"/><path fill="#055490" d="M247.707 40.136C254.232 38.8892 260.529 43.1838 261.75 49.7145C262.97 56.2452 258.651 62.5244 252.115 63.7192C245.616 64.9073 239.38 60.6172 238.166 54.1231C236.952 47.6291 241.217 41.3758 247.707 40.136Z"/><path fill="#FEFEFE" d="M249.251 48.1976C251.098 47.9262 252.822 49.1849 253.125 51.0266C253.429 52.8684 252.2 54.6135 250.364 54.9489C249.147 55.1711 247.906 54.7196 247.116 53.768C246.326 52.8164 246.111 51.5127 246.554 50.3581C246.997 49.2034 248.028 48.3775 249.251 48.1976Z"/></svg>